<svg xmlns="http://www.w3.org/2000/svg" width="49" height="31" viewBox="0 0 49 31" fill="none"><rect width="48.311" height="30.919" rx="3" fill="#306FC8"/><mask id="a" maskUnits="userSpaceOnUse" x="0" y="0" width="49" height="31"><rect width="48.311" height="30.919" rx="3" fill="url(#paint0_linear)"/></mask><g mask="url(#a)" fill="#fff"><path d="M20.912 22.643v-4.501l-2.081 2.216 2.08 2.285zM12.188 18.706v1.014l2.975-.007v1.161h-2.975v1.111h3.335l1.553-1.645-1.49-1.634h-3.398zM24.83 10.177c.174-.098.28-.295.28-.534a.546.546 0 00-.28-.504c-.161-.092-.403-.098-.646-.098h-1.677v1.253h1.659c.26 0 .478-.012.664-.117zM2.498 11.062h1.858l-.932-2.236-.926 2.236zM24.04 18.706h-1.77v1.413h1.758c.516 0 .839-.246.839-.731-.006-.485-.342-.682-.826-.682z"/><path d="M2.845 13.34h1.168l.528 1.259h4.566v-.958l.41.958h2.36l.41-.97v.97h11.342v-2.051h.224c.162 0 .205.018.205.27v1.78h5.864v-.484c.466.251 1.199.485 2.18.485h2.466l.534-1.26h1.168l.528 1.26h4.74v-1.192l.726 1.192h3.808V6.763h-3.764v.921l-.54-.92h-3.87v.92l-.473-.92h-5.23c-.882 0-1.658.116-2.273.448v-.449h-3.603v.449c-.422-.338-.95-.449-1.547-.449H11.585l-.895 2.02-.894-2.02h-4.15v.921l-.471-.92H1.634L0 10.477v4.12h2.317l.528-1.258zm27.332-4.814c.434-.449 1.13-.657 2.068-.657h1.298v1.203H32.27c-.503 0-.783.074-1.05.338-.236.233-.397.682-.397 1.271 0 .602.118 1.026.385 1.32.198.221.577.289.944.289h.609l1.913-4.421h2.025l2.304 5.317V7.87h2.075l2.385 3.911V7.87h1.398v5.624h-1.938l-2.566-4.212v4.212h-2.764l-.522-1.258h-2.826l-.522 1.258h-1.577c-.665 0-1.504-.153-1.976-.626-.478-.479-.72-1.124-.72-2.143 0-.835.149-1.597.727-2.198zm-2.783-.657h1.391v5.624h-1.391V7.87zm-6.243 0h3.13c.69 0 1.2.024 1.634.27.435.252.702.62.702 1.246 0 .89-.608 1.351-.969 1.493.298.11.553.313.671.479.193.27.224.528.224 1.019v1.117h-1.367v-.712c0-.332.031-.823-.223-1.087-.193-.202-.491-.245-.988-.245h-1.46v2.044h-1.36V7.87h.006zm-5.479 0h4.535v1.173h-3.18v1.013h3.099v1.154h-3.1v1.112l3.18-.007v1.173h-4.534V7.87zM1.491 13.493H.013L2.44 7.87h2.025l2.305 5.317V7.87h2.224l1.77 3.813L12.4 7.869h2.26v5.624h-1.39V9.091l-1.97 4.402h-1.192L8.13 9.085v4.408h-2.77l-.522-1.258H2.013l-.522 1.258z"/><path d="M35.656 8.826l-.926 2.236h1.851l-.925-2.236zM45.303 18.835c-.142.092-.204.227-.204.406 0 .208.124.356.298.417.136.05.292.062.522.062l.726.018c.752.018 1.249.141 1.553.454.044.043.08.086.112.13v-1.585h-2.466c-.242 0-.41.012-.54.098z"/><path d="M46.476 23.152h-2.621v-1.204h2.609c.254 0 .434-.037.546-.135a.49.49 0 00.162-.368.468.468 0 00-.168-.375c-.1-.086-.242-.123-.472-.123-1.267-.037-2.864.043-2.864-1.744 0-.804.516-1.67 1.945-1.67h2.702v-1.105h-2.516c-.752 0-1.317.172-1.702.448v-.448h-3.708c-.59 0-1.299.141-1.628.448v-.448h-6.64v.448c-.528-.368-1.416-.448-1.839-.448h-4.38v.448c-.415-.399-1.335-.448-1.9-.448h-4.907l-1.124 1.203-1.044-1.203H9.61v7.835h7.187l1.149-1.222 1.093 1.216 4.423.006v-1.848h.44c.585 0 1.28-.012 1.883-.27v2.118h3.665v-2.05h.18c.224 0 .242.018.242.226v1.824H40.96c.696 0 1.447-.178 1.857-.497v.497h3.516c.727 0 1.447-.104 1.994-.362v-1.455c-.354.479-.975.706-1.851.706zm-22.523-1.88h-1.69v1.88h-2.646l-1.665-1.849-1.74 1.855h-5.385v-5.625h5.467l1.664 1.848 1.733-1.848h4.348c1.069 0 2.28.307 2.28 1.86-.006 1.554-1.18 1.88-2.366 1.88zm8.174-.251c.193.27.224.528.23 1.02v1.11H30.99v-.712c0-.331.031-.822-.223-1.086-.2-.203-.491-.246-.988-.246h-1.46v2.045h-1.36v-5.625h3.13c.69 0 1.193.025 1.634.276.435.252.702.62.702 1.247 0 .89-.608 1.35-.963 1.492.299.11.553.313.665.479zm5.584-2.315h-3.174v1.013h3.106v1.16h-3.106v1.112h3.18v1.167h-4.534v-5.625h4.535v1.173h-.007zm3.454 4.446h-2.646v-1.204h2.634c.254 0 .434-.037.546-.135a.49.49 0 00.162-.368.468.468 0 00-.168-.375c-.1-.086-.242-.123-.472-.123-1.267-.037-2.864.043-2.864-1.744 0-.81.516-1.67 1.945-1.67h2.72v1.204h-2.49c-.249 0-.41.006-.547.092-.143.092-.199.227-.199.405 0 .209.124.356.298.418.143.049.292.061.522.061l.727.018c.751.019 1.248.142 1.553.455.267.282.41.608.41 1.191.006 1.204-.752 1.775-2.131 1.775z"/><path d="M30.643 18.799c-.162-.087-.41-.093-.646-.093H28.32v1.253h1.658c.261 0 .485-.006.665-.11.174-.099.28-.295.28-.535-.007-.245-.112-.417-.28-.515z"/></g><defs><linearGradient id="paint0_linear" x1="24.155" y1="0" x2="24.155" y2="30.919" gradientUnits="userSpaceOnUse"><stop stop-color="#1B8ABA"/><stop offset="1" stop-color="#005D9C"/></linearGradient></defs></svg>