<svg xmlns="http://www.w3.org/2000/svg" width="115" height="35" viewBox="0 0 115 35" fill="none"><path d="M110.64 0H4.255A4.255 4.255 0 000 4.255v25.533a4.255 4.255 0 004.255 4.255H110.64a4.255 4.255 0 004.255-4.255V4.255A4.255 4.255 0 00110.64 0z" fill="#000"/><path d="M110.64.68a3.573 3.573 0 013.574 3.575v25.533a3.576 3.576 0 01-3.574 3.574H4.255a3.574 3.574 0 01-3.574-3.574V4.255A3.575 3.575 0 014.255.681H110.64zm0-.68H4.255A4.255 4.255 0 000 4.255v25.533a4.255 4.255 0 004.255 4.255H110.64a4.258 4.258 0 004.255-4.255V4.255A4.255 4.255 0 00110.64 0z" fill="#A6A6A6"/><path d="M27.33 16.437c-.023-2.614 2.14-3.885 2.24-3.945-1.226-1.786-3.125-2.03-3.793-2.05-1.595-.167-3.142.955-3.954.955-.83 0-2.08-.938-3.429-.91-1.735.026-3.359 1.03-4.25 2.591-1.837 3.181-.466 7.856 1.294 10.428.88 1.259 1.91 2.665 3.257 2.616 1.318-.055 1.81-.84 3.4-.84 1.576 0 2.038.84 3.412.808 1.414-.023 2.304-1.265 3.154-2.536 1.018-1.443 1.426-2.865 1.442-2.938-.033-.011-2.746-1.047-2.773-4.18zM24.735 8.751c.71-.886 1.194-2.092 1.06-3.316-1.026.046-2.31.71-3.048 1.577-.654.763-1.237 2.016-1.087 3.193 1.153.086 2.336-.581 3.075-1.454zM46.4 25.942h-1.842l-1.008-3.17h-3.507l-.96 3.17h-1.794l3.474-10.792h2.146L46.4 25.942zm-3.154-4.5l-.913-2.818c-.096-.288-.277-.966-.544-2.033h-.032a78.201 78.201 0 01-.513 2.033l-.896 2.818h2.898zM55.333 21.954c0 1.324-.357 2.37-1.072 3.138-.641.683-1.437 1.025-2.386 1.025-1.025 0-1.761-.369-2.21-1.105h-.032v4.1h-1.73V20.72c0-.832-.021-1.686-.063-2.562h1.52l.097 1.233h.032c.577-.929 1.452-1.393 2.626-1.393.918 0 1.684.363 2.297 1.089.615.726.921 1.681.921 2.866zm-1.76.063c0-.757-.171-1.381-.513-1.873-.374-.512-.876-.768-1.505-.768-.427 0-.815.142-1.16.424a1.967 1.967 0 00-.681 1.113c-.054.214-.08.39-.08.527v1.297c0 .567.173 1.044.52 1.434.347.39.798.585 1.353.585.65 0 1.158-.252 1.52-.753.364-.502.545-1.163.545-1.986zM64.283 21.954c0 1.324-.357 2.37-1.073 3.138-.64.683-1.435 1.025-2.385 1.025-1.025 0-1.761-.369-2.209-1.105h-.032v4.1h-1.73V20.72c0-.832-.021-1.686-.063-2.562h1.52l.097 1.233h.032c.576-.929 1.45-1.393 2.626-1.393.917 0 1.683.363 2.298 1.089.612.726.92 1.681.92 2.866zm-1.76.063c0-.757-.172-1.381-.514-1.873-.374-.512-.874-.768-1.504-.768a1.8 1.8 0 00-1.162.424 1.966 1.966 0 00-.68 1.113c-.052.214-.08.39-.08.527v1.297c0 .567.174 1.044.52 1.434.347.39.797.585 1.354.585.65 0 1.158-.252 1.52-.753.364-.502.545-1.163.545-1.986zM74.29 22.914c0 .918-.318 1.665-.958 2.242-.703.63-1.682.944-2.94.944-1.16 0-2.092-.224-2.796-.672l.4-1.44c.76.458 1.592.688 2.5.688.65 0 1.157-.147 1.521-.44.363-.294.544-.688.544-1.18 0-.438-.15-.807-.449-1.106-.297-.3-.794-.577-1.489-.834-1.889-.705-2.833-1.737-2.833-3.095 0-.887.33-1.614.993-2.18.66-.567 1.541-.85 2.642-.85.982 0 1.798.171 2.45.512l-.433 1.41c-.608-.331-1.296-.497-2.065-.497-.608 0-1.084.15-1.424.449a1.281 1.281 0 00-.432.977c0 .427.164.78.495 1.057.288.256.81.533 1.57.832.928.374 1.61.811 2.05 1.313.436.499.654 1.124.654 1.87zM80.006 19.457H78.1v3.778c0 .96.336 1.44 1.009 1.44.309 0 .565-.026.768-.08l.048 1.313c-.34.127-.79.192-1.345.192-.682 0-1.216-.209-1.601-.625-.384-.417-.577-1.116-.577-2.098v-3.922h-1.135v-1.297h1.135v-1.425l1.698-.513v1.938h1.906v1.299zM88.605 21.986c0 1.196-.343 2.178-1.026 2.946-.715.79-1.666 1.185-2.85 1.185-1.142 0-2.051-.379-2.73-1.136-.677-.758-1.016-1.714-1.016-2.866 0-1.206.349-2.194 1.048-2.962.698-.768 1.64-1.153 2.825-1.153 1.142 0 2.061.379 2.754 1.137.664.736.995 1.685.995 2.849zm-1.794.056c0-.718-.154-1.333-.464-1.847-.362-.62-.88-.93-1.552-.93-.695 0-1.223.31-1.585.93-.311.514-.464 1.14-.464 1.88 0 .717.153 1.332.464 1.845.373.621.896.93 1.57.93.66 0 1.178-.315 1.552-.946.318-.523.479-1.145.479-1.862zM94.224 19.68a3.005 3.005 0 00-.545-.048c-.608 0-1.078.23-1.41.689-.287.405-.431.918-.431 1.537v4.083h-1.729l.017-5.331c0-.897-.022-1.714-.065-2.45h1.506l.063 1.489h.048c.182-.512.47-.924.864-1.233a2.09 2.09 0 011.25-.417c.16 0 .304.012.432.032v1.649zM101.955 21.682c0 .31-.02.57-.063.784h-5.187c.02.769.271 1.357.753 1.762.437.362 1.002.544 1.696.544.768 0 1.469-.122 2.099-.368l.271 1.2c-.736.321-1.606.481-2.609.481-1.207 0-2.154-.355-2.843-1.065-.688-.71-1.032-1.662-1.032-2.857 0-1.174.32-2.15.961-2.93.672-.832 1.58-1.248 2.721-1.248 1.122 0 1.971.416 2.547 1.248.457.66.686 1.478.686 2.449zm-1.648-.449c.011-.512-.102-.955-.336-1.329-.3-.48-.76-.72-1.378-.72-.565 0-1.025.234-1.376.704a2.58 2.58 0 00-.512 1.345h3.602zM42.673 8.51c0 .955-.286 1.673-.857 2.156-.53.445-1.283.668-2.257.668-.483 0-.897-.021-1.243-.063V6.056c.451-.073.938-.11 1.463-.11.929 0 1.629.201 2.1.605.53.457.794 1.11.794 1.96zm-.896.024c0-.619-.163-1.093-.491-1.424-.328-.33-.806-.496-1.436-.496-.268 0-.496.018-.684.055v3.965c.104.016.296.024.574.024.65 0 1.152-.181 1.505-.543.354-.362.532-.889.532-1.581zM47.425 9.344c0 .588-.168 1.07-.504 1.447-.352.389-.818.582-1.4.582-.561 0-1.008-.185-1.341-.558-.333-.372-.499-.842-.499-1.408 0-.592.171-1.078.515-1.455s.806-.566 1.388-.566c.561 0 1.012.186 1.354.558.324.362.487.829.487 1.4zm-.881.027c0-.352-.077-.655-.228-.907-.179-.305-.433-.457-.763-.457-.341 0-.6.152-.779.457-.152.252-.228.56-.228.923 0 .352.077.655.228.907.184.305.44.457.771.457.325 0 .58-.154.763-.465.157-.257.236-.562.236-.915zM53.795 7.464L52.6 11.287h-.778l-.496-1.66a12.402 12.402 0 01-.307-1.235h-.015c-.074.42-.176.83-.308 1.235l-.526 1.66h-.787l-1.125-3.823h.873l.432 1.817c.105.43.191.84.26 1.227h.015c.063-.32.168-.726.316-1.219l.542-1.824h.693l.52 1.785c.125.436.227.855.306 1.259h.024c.057-.393.144-.813.26-1.259l.463-1.785h.834v-.001zM58.201 11.287h-.85v-2.19c0-.674-.256-1.012-.77-1.012a.767.767 0 00-.614.278.987.987 0 00-.236.656v2.267h-.85v-2.73c0-.335-.01-.7-.03-1.094h.746l.04.598h.023c.1-.186.247-.339.44-.461.231-.143.489-.215.771-.215.357 0 .654.115.89.346.293.283.44.706.44 1.267v2.29zM60.544 11.287h-.85V5.71h.85v5.577zM65.548 9.344c0 .588-.168 1.07-.504 1.447-.352.389-.819.582-1.4.582-.562 0-1.01-.185-1.342-.558-.332-.372-.498-.842-.498-1.408 0-.592.17-1.078.514-1.455s.807-.566 1.388-.566c.562 0 1.012.186 1.354.558.325.362.488.829.488 1.4zm-.883.027c0-.352-.076-.655-.228-.907-.177-.305-.432-.457-.761-.457-.342 0-.602.152-.78.457-.152.252-.227.56-.227.923 0 .352.076.655.228.907.184.305.44.457.77.457.325 0 .579-.154.762-.465.158-.257.236-.562.236-.915zM69.661 11.287h-.763l-.063-.44h-.024c-.26.35-.633.527-1.116.527-.361 0-.653-.117-.873-.347-.2-.209-.3-.47-.3-.778 0-.467.195-.823.587-1.07.391-.246.94-.367 1.649-.361v-.072c0-.503-.265-.755-.794-.755-.377 0-.71.095-.997.283l-.172-.558c.355-.22.793-.33 1.31-.33 1 0 1.5.527 1.5 1.582v1.407c0 .382.02.686.056.912zm-.882-1.314v-.59c-.938-.016-1.406.241-1.406.77 0 .2.053.35.163.45.11.099.249.149.415.149.186 0 .36-.06.52-.177a.724.724 0 00.308-.602zM74.49 11.287h-.755l-.04-.614h-.023c-.24.467-.651.7-1.228.7-.46 0-.844-.18-1.148-.542-.304-.362-.456-.831-.456-1.408 0-.618.165-1.12.496-1.502.32-.357.713-.536 1.18-.536.513 0 .872.173 1.076.52h.017V5.71h.85v4.547c0 .372.01.715.03 1.03zm-.881-1.612v-.638a.968.968 0 00-.33-.783.835.835 0 00-.57-.208.872.872 0 00-.747.378c-.181.252-.273.574-.273.968 0 .377.087.684.261.92a.875.875 0 00.743.377.819.819 0 00.672-.315c.163-.193.244-.427.244-.7zM81.758 9.344c0 .588-.168 1.07-.504 1.447-.352.389-.817.582-1.4.582-.56 0-1.007-.185-1.342-.558-.332-.372-.498-.842-.498-1.408 0-.592.17-1.078.515-1.455.343-.377.806-.566 1.389-.566.56 0 1.012.186 1.352.558.325.362.488.829.488 1.4zm-.881.027c0-.352-.076-.655-.228-.907-.18-.305-.432-.457-.763-.457-.34 0-.6.152-.78.457-.152.252-.227.56-.227.923 0 .352.076.655.228.907.184.305.44.457.771.457.324 0 .58-.154.763-.465.156-.257.236-.562.236-.915zM86.327 11.287h-.849v-2.19c0-.674-.256-1.012-.771-1.012a.764.764 0 00-.613.278.983.983 0 00-.236.656v2.267h-.85v-2.73c0-.335-.01-.7-.03-1.094h.745l.04.598h.024c.1-.186.247-.339.44-.461a1.44 1.44 0 01.771-.215c.356 0 .653.115.889.346.294.283.44.706.44 1.267v2.29zM92.046 8.1h-.936v1.858c0 .472.167.708.496.708.152 0 .279-.013.379-.04l.022.645a1.91 1.91 0 01-.66.094c-.336 0-.597-.102-.786-.306-.19-.204-.284-.548-.284-1.03V8.1h-.559v-.637h.559v-.7l.833-.252v.951h.935v.638h.001zM96.545 11.287h-.85V9.113c0-.685-.257-1.028-.77-1.028-.394 0-.663.199-.81.596a1.07 1.07 0 00-.04.306v2.299h-.85V5.71h.85v2.304h.016c.267-.42.65-.629 1.148-.629.352 0 .643.116.874.347.288.288.432.716.432 1.282v2.273zM101.186 9.195c0 .152-.012.28-.032.385h-2.549c.012.378.133.665.37.865.215.178.493.268.834.268.377 0 .721-.06 1.03-.181l.133.59c-.362.157-.789.236-1.282.236-.592 0-1.059-.174-1.396-.523-.339-.349-.507-.817-.507-1.404 0-.576.157-1.056.472-1.439.33-.409.775-.613 1.337-.613.549 0 .967.204 1.249.613.228.324.341.726.341 1.203zm-.811-.22a1.15 1.15 0 00-.165-.653c-.147-.236-.372-.354-.676-.354a.807.807 0 00-.676.346 1.287 1.287 0 00-.253.66h1.77z" fill="#fff"/></svg>