<svg xmlns="http://www.w3.org/2000/svg" fill="#006400" viewBox="0 0 477.867 477.867"><path d="M238.933 0C106.974 0 0 106.974 0 238.933s106.974 238.933 238.933 238.933 238.933-106.974 238.933-238.933C477.726 107.033 370.834.141 238.933 0zm131.533 165.666L199.799 336.333c-6.665 6.663-17.468 6.663-24.132 0L107.4 268.066c-6.78-6.548-6.968-17.352-.42-24.132 6.548-6.78 17.352-6.968 24.132-.42.142.138.282.277.42.42l56.201 56.201 158.601-158.601c6.78-6.548 17.584-6.36 24.132.419 6.388 6.614 6.388 17.099 0 23.713z"/></svg>