<svg xmlns="http://www.w3.org/2000/svg" width="30" height="30" viewBox="0 0 30 30" fill="none"><path d="M6 20.75c-.55 0-1 .45-1 1s.45 1 1 1 1-.45 1-1-.45-1-1-1zM24 20.75c-.55 0-1 .45-1 1s.45 1 1 1 1-.45 1-1-.45-1-1-1zM22.5 17.25h-1c-.3 0-.5.2-.5.5s.2.5.5.5h1c.3 0 .5-.2.5-.5s-.2-.5-.5-.5z" fill="#000"/><path d="M29.35 16.2l-1.95-.8-1.25-5c-.15-.7-.75-1.15-1.45-1.15h-3.2v-3c0-.55-.45-1-1-1H1c-.55 0-1 .45-1 1v15c0 .55.45 1 1 1h2.043A3.01 3.01 0 006 24.75a3.01 3.01 0 002.957-2.5h12.086A3.01 3.01 0 0024 24.75a3.01 3.01 0 002.957-2.5H29c.55 0 1-.45 1-1v-4.1c0-.45-.25-.8-.65-.95zM1 6.25h19.5v4c0 2.5-2 4.5-4.5 4.5H1v-8.5zm5 17.5c-1.1 0-2-.9-2-2s.9-2 2-2 2 .9 2 2-.9 2-2 2zm18 0c-1.1 0-2-.9-2-2s.9-2 2-2 2 .9 2 2-.9 2-2 2zm5-2.5h-2.043a3.017 3.017 0 00-1.725-2.233l-.06-.027-.038-.015a2.973 2.973 0 00-.098-.04 3.012 3.012 0 00-.138-.047l-.024-.007a2.912 2.912 0 00-.115-.033l-.025-.006a3.094 3.094 0 00-.115-.027l-.03-.006a2.975 2.975 0 00-.255-.04l-.038-.004a2.912 2.912 0 00-.111-.009l-.037-.002a3.028 3.028 0 00-.296 0l-.037.002a2.907 2.907 0 00-.111.009l-.038.004a3.264 3.264 0 00-.11.014l-.034.006a2.935 2.935 0 00-.256.053l-.026.006c-.038.01-.077.021-.115.033l-.024.008a2.954 2.954 0 00-.11.037l-.028.01a2.987 2.987 0 00-.098.039l-.038.015-.06.027a3.017 3.017 0 00-1.724 2.233H8.957a3.018 3.018 0 00-1.725-2.233l-.06-.027-.038-.015a2.985 2.985 0 00-.098-.039l-.026-.01a2.945 2.945 0 00-.391-.11l-.03-.007a2.988 2.988 0 00-.112-.02l-.033-.006a2.827 2.827 0 00-.11-.014l-.038-.004a2.907 2.907 0 00-.111-.009l-.037-.002a3.03 3.03 0 00-.296 0l-.037.002a2.91 2.91 0 00-.111.009l-.038.004a3.04 3.04 0 00-.11.014l-.033.006a3.179 3.179 0 00-.113.02l-.03.006a3.097 3.097 0 00-.114.027l-.026.006-.115.033-.024.008a2.954 2.954 0 00-.11.038l-.028.009a2.795 2.795 0 00-.098.039l-.038.015-.06.027a3.017 3.017 0 00-1.724 2.233H1v-5.5h15c3.05 0 5.5-2.45 5.5-5.5h3.2c.25 0 .45.2.5.4l1.14 4.6h-2.19c-.35 0-.65-.3-.65-.65v-2.35c0-.3-.2-.5-.5-.5s-.5.2-.5.5v2.35c0 .9.75 1.65 1.65 1.65h2.65l2.2.85v4.15z" fill="#000"/><path d="M5.5 7.25H3c-.3 0-.5.2-.5.5v5.5c0 .3.2.5.5.5s.5-.2.5-.5v-2.5H5c.3 0 .5-.2.5-.5s-.2-.5-.5-.5H3.5v-1.5h2c.3 0 .5-.2.5-.5s-.2-.5-.5-.5zM14 8.25c.3 0 .5-.2.5-.5s-.2-.5-.5-.5h-2.5c-.3 0-.5.2-.5.5v5.5c0 .3.2.5.5.5H14c.3 0 .5-.2.5-.5s-.2-.5-.5-.5h-2v-2h1c.3 0 .5-.2.5-.5s-.2-.5-.5-.5h-1v-1.5h2zM18.5 13.25c0-.3-.2-.5-.5-.5h-2v-2h1c.3 0 .5-.2.5-.5s-.2-.5-.5-.5h-1v-1.5h2c.3 0 .5-.2.5-.5s-.2-.5-.5-.5h-2.5c-.3 0-.5.2-.5.5v5.5c0 .3.2.5.5.5H18c.3 0 .5-.2.5-.5zM8.877 11.046A2.006 2.006 0 0010 9.25c0-1.1-.9-2-2-2H7c-.3 0-.5.2-.5.5v5.5c0 .3.2.5.5.5s.5-.2.5-.5v-2h.26l1.84 2.3c.1.15.25.2.4.2.1 0 .2-.05.3-.1.25-.15.25-.5.1-.7l-1.523-1.904zM9 9.25a1.002 1.002 0 01-1.032 1H7.5v-2H8c.55 0 1 .45 1 1z" fill="#000"/></svg>