<svg xmlns="http://www.w3.org/2000/svg" width="115" height="35" viewBox="0 0 115 35" fill="none"><path d="M110.745 0H4.36A4.255 4.255 0 00.105 4.255v25.533a4.255 4.255 0 004.255 4.255h106.385A4.255 4.255 0 00115 29.788V4.255A4.255 4.255 0 00110.745 0z" fill="#000"/><path d="M110.745.68a3.573 3.573 0 013.574 3.575v25.533a3.572 3.572 0 01-3.574 3.574H4.36a3.574 3.574 0 01-3.574-3.574V4.255A3.575 3.575 0 014.36.681h106.385zm0-.68H4.36A4.255 4.255 0 00.105 4.255v25.533a4.255 4.255 0 004.255 4.255h106.385A4.256 4.256 0 00115 29.788V4.255A4.255 4.255 0 00110.745 0z" fill="#A6A6A6"/><path d="M58.097 18.51a3.616 3.616 0 103.634 3.618 3.565 3.565 0 00-3.634-3.617zm0 5.814a2.196 2.196 0 112.043-2.196 2.093 2.093 0 01-2.043 2.196zm-7.923-5.813a3.616 3.616 0 103.625 3.617 3.565 3.565 0 00-3.634-3.617h.009zm0 5.813a2.195 2.195 0 112.034-2.196 2.093 2.093 0 01-2.043 2.196h.009zm-9.439-4.698v1.532h3.677a3.209 3.209 0 01-.851 1.931 3.761 3.761 0 01-2.834 1.124 4.085 4.085 0 110-8.17 3.915 3.915 0 012.783 1.098l1.08-1.081a5.352 5.352 0 00-3.855-1.592 5.623 5.623 0 00-5.844 5.622 5.625 5.625 0 005.844 5.62 5.105 5.105 0 003.924-1.574 5.107 5.107 0 001.328-3.591 5.004 5.004 0 00-.086-.962l-5.166.043zm38.563 1.191a3.405 3.405 0 00-3.098-2.306 3.403 3.403 0 00-3.405 3.617 3.54 3.54 0 003.592 3.617 3.6 3.6 0 003.013-1.6l-1.234-.851a2.069 2.069 0 01-1.78 1.004 1.839 1.839 0 01-1.752-1.098l4.842-2-.178-.383zm-4.937 1.209a1.982 1.982 0 011.89-2.111 1.404 1.404 0 011.344.766l-3.234 1.345zm-3.932 3.506h1.592V14.894h-1.592v10.638zm-2.604-6.213h-.06a2.553 2.553 0 00-1.906-.85 3.626 3.626 0 000 7.242 2.467 2.467 0 001.906-.851h.052v.519c0 1.387-.74 2.128-1.932 2.128a2 2 0 01-1.822-1.286l-1.387.58a3.447 3.447 0 003.209 2.135c1.863 0 3.404-1.098 3.404-3.77v-6.442h-1.464v.595zm-1.821 5.005a2.204 2.204 0 010-4.392 2.04 2.04 0 011.932 2.196 2.024 2.024 0 01-1.94 2.196h.008zm20.749-9.43h-3.804v10.638h1.591v-4.034h2.221a3.31 3.31 0 100-6.604h-.008zm0 5.106h-2.221v-3.625h2.255a1.825 1.825 0 110 3.65L86.753 20zm9.813-1.532a2.979 2.979 0 00-2.834 1.626l1.412.587a1.506 1.506 0 011.447-.783 1.531 1.531 0 011.702 1.37v.11a3.513 3.513 0 00-1.66-.408c-1.523 0-3.063.851-3.063 2.392a2.459 2.459 0 002.638 2.34 2.238 2.238 0 002.043-1.021h.05v.851h1.533V21.44c0-1.864-1.413-2.945-3.226-2.945l-.042-.026zm-.196 5.83c-.52 0-1.243-.264-1.243-.902 0-.851.903-1.132 1.703-1.132a2.825 2.825 0 011.446.358 1.923 1.923 0 01-1.863 1.702l-.043-.026zm9.047-5.574l-1.821 4.612h-.051l-1.89-4.612h-1.702l2.834 6.45-1.617 3.584h1.66l4.357-10.034h-1.77zM91.11 25.532h1.592V14.894H91.11v10.638zM40.41 8.768a2.306 2.306 0 01-.638 1.702 2.476 2.476 0 01-1.873.758 2.68 2.68 0 01-1.02-5.149c.324-.131.671-.195 1.02-.188.36 0 .716.072 1.047.213.308.124.582.32.8.57l-.451.452a1.702 1.702 0 00-1.396-.605 1.974 1.974 0 00-1.983 2.043 2.008 2.008 0 003.405 1.472c.261-.284.412-.652.425-1.038h-1.847v-.613h2.477c.023.127.034.255.034.383zm3.898-2.128H42.01v1.617h2.093v.613H42.01v1.617h2.298v.63h-2.979V6.011h2.979v.63zm2.791 4.477h-.655V6.64h-1.43v-.63h3.55v.63h-1.465v4.477zm3.966 0V6.011h.656v5.106h-.656zm3.566 0h-.655V6.64h-1.43v-.63h3.507v.63H54.63v4.477zm8.069-.664a2.656 2.656 0 01-3.745 0 2.758 2.758 0 010-3.787 2.64 2.64 0 013.745 0 2.749 2.749 0 010 3.787zm-3.26-.425a1.966 1.966 0 002.774 0 2.178 2.178 0 000-2.928 1.966 1.966 0 00-2.774 0 2.179 2.179 0 000 2.928zm4.936 1.09V6.01h.8l2.485 3.974V6.011h.656v5.106h-.681L65.04 6.955v4.162h-.664z" fill="#fff"/><path fill-rule="evenodd" clip-rule="evenodd" d="M60.827 5.972a2.553 2.553 0 00-1.811.753 2.672 2.672 0 000 3.669 2.57 2.57 0 003.623 0 2.663 2.663 0 000-3.669 2.553 2.553 0 00-1.812-.753zm-1.047.039a2.723 2.723 0 012.98.595l.001.001a2.834 2.834 0 010 3.905l-.002.002a2.74 2.74 0 01-3.864 0l-.002-.002a2.843 2.843 0 010-3.904l.001-.002c.254-.255.555-.457.886-.595zm-21.883-.034a2.468 2.468 0 00-1.818.74 2.596 2.596 0 001.82 4.426h.003a2.39 2.39 0 001.808-.732 2.22 2.22 0 00.615-1.639l.085-.004h-.085c0-.1-.007-.2-.022-.298h-2.319v.443h1.85L39.83 9a1.693 1.693 0 01-.448 1.093l-.003.004a2.093 2.093 0 01-3.549-1.533 2.06 2.06 0 012.066-2.129 1.787 1.787 0 011.402.565l.33-.33c-.2-.212-.444-.379-.715-.488h-.002a2.553 2.553 0 00-1.012-.206h-.003zm2.598 2.79a2.392 2.392 0 01-.662 1.762 2.561 2.561 0 01-1.936.784 2.766 2.766 0 01-1.94-4.715 2.639 2.639 0 011.943-.792c.37 0 .738.074 1.079.22.32.129.605.332.831.593l.052.06-.573.572-.06-.07a1.618 1.618 0 00-1.325-.575h-.005A1.89 1.89 0 0036 8.562v.004a1.923 1.923 0 003.259 1.412c.227-.247.365-.561.396-.894h-1.842V8.3h2.633l.013.07c.023.13.035.263.035.396zm.749-2.841h3.149v.8h-2.298v1.446h2.094v.783h-2.094v1.447h2.298v.8h-3.15V5.926zm.17.17v4.936h2.809v-.46h-2.298V8.785h2.093v-.442h-2.093V6.555h2.298v-.46h-2.809zm3.515-.17h3.72v.8h-1.465v4.476h-.825V6.726h-1.43v-.8zm.17.17v.46h1.43v4.476h.485V6.555h1.464v-.46h-3.379zm5.881-.17h.826v5.276h-.826V5.926zm.17.17v4.936h.486V6.096h-.486zm1.311-.17h3.677v.8h-1.422v4.476h-.825V6.726h-1.43v-.8zm.17.17v.46h1.43v4.476h.485V6.555h1.422v-.46H52.63zm11.66-.17h.932l2.353 3.763V5.926h.826v5.276h-.814l-2.463-3.95v3.95h-.834V5.926zm.17.17v4.936h.494V6.658l2.728 4.374h.548V6.096h-.485v4.186L65.13 6.096h-.668zm-5.081.944a2.051 2.051 0 012.894 0l.004.003a2.264 2.264 0 010 3.042l-.003.003a2.051 2.051 0 01-2.895 0l.06-.06-.063.057a2.264 2.264 0 010-3.042l.003-.003zm.121 2.929a1.881 1.881 0 002.652 0 2.094 2.094 0 000-2.81 1.881 1.881 0 00-2.652 0 2.094 2.094 0 000 2.81z" fill="#fff"/><path d="M8.99 6.417a1.702 1.702 0 00-.392 1.191v18.826c-.026.433.114.859.392 1.192l.06.06 10.544-10.537v-.247L9.05 6.357l-.06.06z" fill="url(#paint0_linear)"/><path d="M23.083 20.664l-3.489-3.515v-.247l3.49-3.523.076.042 4.179 2.375c1.191.672 1.191 1.779 0 2.46l-4.162 2.365-.094.043z" fill="url(#paint1_linear)"/><path d="M23.186 20.613l-3.592-3.592L8.99 27.626a1.387 1.387 0 001.77.05l12.434-7.063" fill="url(#paint2_linear)"/><path d="M23.187 13.43L10.753 6.366a1.387 1.387 0 00-1.77.051l10.612 10.604 3.592-3.591z" fill="url(#paint3_linear)"/><path opacity=".2" d="M23.084 20.536l-12.332 7.022a1.421 1.421 0 01-1.703 0l-.06.06.06.059a1.412 1.412 0 001.703 0l12.434-7.064-.102-.077z" fill="#000"/><path opacity=".12" d="M8.99 27.507a1.702 1.702 0 01-.392-1.192v.128c-.026.432.114.858.392 1.191l.06-.06-.06-.067zm18.349-9.38l-4.255 2.41.076.076 4.179-2.366a1.49 1.49 0 00.851-1.226 1.584 1.584 0 01-.851 1.107z" fill="#000"/><path opacity=".25" d="M10.752 6.488l16.587 9.43a1.584 1.584 0 01.851 1.106 1.49 1.49 0 00-.85-1.226l-16.588-9.43C9.56 5.696 8.59 6.258 8.59 7.62v.128c.026-1.37.979-1.932 2.162-1.26z" fill="#fff"/><defs><linearGradient id="paint0_linear" x1="18.658" y1="7.413" x2="4.377" y2="21.694" gradientUnits="userSpaceOnUse"><stop stop-color="#00A0FF"/><stop offset=".01" stop-color="#00A1FF"/><stop offset=".26" stop-color="#00BEFF"/><stop offset=".51" stop-color="#00D2FF"/><stop offset=".76" stop-color="#00DFFF"/><stop offset="1" stop-color="#00E3FF"/></linearGradient><linearGradient id="paint1_linear" x1="28.896" y1="17.021" x2="8.309" y2="17.021" gradientUnits="userSpaceOnUse"><stop stop-color="#FFE000"/><stop offset=".41" stop-color="#FFBD00"/><stop offset=".78" stop-color="orange"/><stop offset="1" stop-color="#FF9C00"/></linearGradient><linearGradient id="paint2_linear" x1="21.237" y1="18.979" x2="1.866" y2="38.341" gradientUnits="userSpaceOnUse"><stop stop-color="#FF3A44"/><stop offset="1" stop-color="#C31162"/></linearGradient><linearGradient id="paint3_linear" x1="6.319" y1=".153" x2="14.966" y2="8.8" gradientUnits="userSpaceOnUse"><stop stop-color="#32A071"/><stop offset=".07" stop-color="#2DA771"/><stop offset=".48" stop-color="#15CF74"/><stop offset=".8" stop-color="#06E775"/><stop offset="1" stop-color="#00F076"/></linearGradient></defs></svg>