<svg xmlns="http://www.w3.org/2000/svg" width="32" height="32" viewBox="0 0 32 32" fill="none"><rect width="32" height="32" rx="16" fill="#000"/><path d="M12.667 16a3.333 3.333 0 116.667 0 3.333 3.333 0 01-6.667 0zm-1.802 0a5.135 5.135 0 1010.27 0 5.135 5.135 0 00-10.27 0zm9.273-5.338a1.2 1.2 0 101.2-1.2 1.2 1.2 0 00-1.2 1.2zM11.96 24.14c-.975-.045-1.505-.207-1.857-.344a3.11 3.11 0 01-1.15-.748 3.086 3.086 0 01-.748-1.15c-.137-.352-.3-.882-.344-1.857-.049-1.054-.058-1.37-.058-4.04 0-2.671.01-2.987.058-4.042.044-.975.208-1.504.344-1.857.182-.467.398-.8.748-1.15.35-.35.682-.567 1.15-.748.352-.138.882-.3 1.857-.344C13.014 7.81 13.33 7.8 16 7.8s2.986.01 4.041.059c.975.044 1.504.208 1.857.344.467.18.8.398 1.15.748.35.35.567.683.749 1.15.137.352.3.882.344 1.857.048 1.055.058 1.37.058 4.041 0 2.67-.01 2.986-.058 4.041-.045.975-.208 1.505-.344 1.857a3.1 3.1 0 01-.748 1.15 3.11 3.11 0 01-1.15.748c-.353.137-.883.3-1.858.344-1.054.048-1.37.058-4.04.058-2.671 0-2.987-.01-4.04-.058zm-.083-18.08c-1.064.049-1.792.218-2.427.465A4.905 4.905 0 007.68 7.678 4.886 4.886 0 006.525 9.45c-.247.636-.416 1.363-.464 2.427C6.01 12.943 6 13.284 6 16s.01 3.057.06 4.123c.048 1.064.217 1.791.464 2.427a4.888 4.888 0 001.154 1.771 4.916 4.916 0 001.771 1.154c.637.247 1.363.416 2.427.464 1.067.049 1.407.061 4.123.061s3.057-.011 4.123-.06c1.065-.049 1.792-.218 2.427-.465a4.918 4.918 0 001.772-1.154 4.898 4.898 0 001.153-1.77c.247-.637.417-1.364.465-2.428.048-1.067.06-1.407.06-4.123s-.012-3.057-.06-4.123c-.049-1.064-.218-1.792-.465-2.427a4.917 4.917 0 00-1.153-1.772 4.893 4.893 0 00-1.77-1.153c-.637-.247-1.364-.417-2.428-.464C19.058 6.012 18.717 6 16 6s-3.057.011-4.124.06z" fill="#fff"/></svg>