<svg version="1.0" xmlns="http://www.w3.org/2000/svg"
 width="800.000000pt" height="424.800000pt" viewBox="0 0 800.000000 424.800000"
 preserveAspectRatio="xMidYMid meet">
<style type="text/css">
	.st1{fill:#1485db;}
	.st2{fill:#4c535b;}
</style>
<g transform="translate(0.000000,424.800000) scale(0.080000,-0.080000)"
 stroke="none">
<path class="st1" d="M5470 5000 c1030 -716 1044 -726 1126 -813 81 -83 144 -187 163 -263
18 -70 1 132 -20 243 -130 689 -687 1091 -1564 1130 l-140 6 435 -303z"/>
<path class="st1" d="M3140 4368 c0 -779 2 -919 14 -903 21 32 1227 1767 1248 1798 l19 27
-640 0 -641 0 0 -922z"/>
<path class="st2" d="M4701 4629 l-170 -252 22 -17 c93 -71 1194 -824 1221 -835 49 -21
124 -19 161 3 32 20 208 270 226 321 16 44 -5 102 -54 155 -23 24 -305 228
-627 452 -322 223 -590 411 -597 416 -8 6 -62 -67 -182 -243z"/>
<path class="st2" d="M4091 3744 c-155 -224 -181 -268 -170 -279 16 -15 1220 -830 1252
-847 57 -30 162 -2 219 59 45 47 177 263 184 299 9 51 -4 100 -36 138 -16 18
-132 105 -257 193 -125 88 -399 281 -608 428 -208 147 -384 269 -390 271 -5 2
-93 -116 -194 -262z"/>
<path class="st1" d="M6747 3717 c-23 -74 -110 -215 -228 -373 -110 -148 -150 -186 -229
-223 -78 -36 -204 -36 -307 1 l-72 26 44 -55 c25 -30 59 -84 77 -121 27 -57
33 -81 36 -158 5 -113 -17 -189 -83 -287 l-44 -66 46 20 c79 34 225 125 311
194 218 176 369 431 432 730 20 91 45 334 38 355 -2 7 -11 -13 -21 -43z"/>
<path class="st1" d="M3140 2871 l0 -551 800 -2 c439 -2 796 0 792 3 -10 8 -1564 1084
-1579 1093 -10 6 -13 -106 -13 -543z"/>
<path class="st2" d="M348 1762 l-348 -2 0 -485 0 -485 353 -2 c193 -2 368 0 387 4 19 4
64 13 100 20 90 16 208 77 260 134 104 113 145 301 105 473 -46 194 -203 315
-442 339 -37 4 -224 6 -415 4z m451 -188 c67 -19 122 -70 151 -137 20 -44 23
-69 23 -157 -1 -119 -13 -158 -68 -219 -19 -21 -58 -49 -87 -61 -57 -25 -91
-26 -395 -22 l-192 2 -3 305 -3 305 261 0 c206 0 271 -3 313 -16z"/>
<path class="st2" d="M3775 1760 l-430 -5 0 -480 0 -480 113 -3 112 -3 0 181 0 180 106 0
105 0 197 -180 197 -180 148 0 147 0 -37 33 c-21 18 -112 96 -203 172 -91 76
-169 142 -175 147 -6 5 23 9 70 8 146 -2 216 23 254 91 21 37 22 49 19 228 -3
174 -5 192 -24 218 -28 37 -71 61 -125 71 -24 4 -237 5 -474 2z m402 -172 c8
-12 10 -244 2 -252 -8 -8 -45 -8 -326 -7 l-283 1 0 135 0 135 299 0 c227 0
301 -3 308 -12z"/>
<path class="st2" d="M5048 1759 c-73 -11 -118 -41 -147 -96 -8 -16 -12 -128 -12 -377 0
-388 1 -399 59 -448 52 -44 102 -48 551 -48 448 0 487 4 537 51 51 48 55 88
52 461 -3 393 -3 393 -89 436 -45 22 -51 22 -476 25 -236 1 -450 -1 -475 -4z
m822 -476 l0 -308 -380 0 -380 0 0 308 0 307 380 0 380 0 0 -307z"/>
<path class="st2" d="M1712 1348 c3 -399 4 -415 25 -460 16 -35 32 -53 65 -70 43 -23 44
-23 453 -23 l411 0 49 25 c40 20 55 36 75 75 l25 50 3 408 3 407 -115 0 -116
0 0 -392 0 -393 -325 3 -325 3 0 389 0 390 -116 0 -115 0 3 -412z"/>
<path class="st2" d="M6460 1756 c0 -2 123 -220 274 -483 l275 -478 78 -3 78 -3 268 480
c147 263 267 482 267 485 0 3 -51 6 -112 6 l-113 -1 -185 -344 c-102 -190
-187 -345 -190 -345 -3 0 -92 154 -197 343 l-191 342 -126 3 c-69 1 -126 1
-126 -2z"/>
<path class="st2" d="M8090 1275 l0 -485 115 0 115 0 0 485 0 485 -115 0 -115 0 0 -485z"/>
<path class="st2" d="M8830 1275 l0 -485 105 0 105 0 2 335 3 336 400 -335 400 -336 78 0
77 0 0 485 0 485 -105 0 -106 0 3 -330 c2 -182 2 -330 1 -330 -2 0 -181 149
-399 330 l-396 330 -84 0 -84 0 0 -485z"/>
<path class="st2" d="M987 443 c-4 -3 -7 -103 -7 -222 l0 -216 216 5 c212 5 216 5 235 29
27 34 27 133 -1 161 -11 11 -26 20 -32 20 -7 0 0 10 15 23 33 27 43 76 28 135
-11 38 -15 42 -63 57 -37 11 -98 15 -218 15 -92 0 -170 -3 -173 -7z m361 -130
l3 -53 -138 0 -138 0 0 55 0 56 135 -3 135 -3 3 -52z m7 -178 l0 -50 -137 -3
-138 -3 0 56 0 56 138 -3 137 -3 0 -50z"/>
<path class="st2" d="M1965 240 c-66 -117 -121 -216 -123 -221 -2 -5 17 -9 42 -9 45 0 47
1 68 45 l22 45 143 0 143 0 27 -47 c28 -47 29 -48 79 -48 l52 0 -19 35 c-10
19 -67 118 -126 220 l-108 185 -40 3 -40 3 -120 -211z m209 18 l45 -78 -100 0
-99 0 30 53 c17 28 39 67 47 85 9 18 20 29 24 25 4 -5 28 -43 53 -85z"/>
<path class="st2" d="M2717 443 c-4 -3 -7 -21 -7 -39 l0 -33 103 -3 102 -3 3 -180 2 -180
45 3 45 4 2 176 3 177 103 3 102 3 0 33 c0 22 -6 36 -16 40 -21 8 -479 8 -487
-1z"/>
<path class="st2" d="M3617 443 c-4 -3 -7 -103 -7 -220 l0 -214 53 3 52 3 0 88 0 87 155 0
155 0 0 -87 0 -88 53 -3 52 -3 -2 218 -3 218 -38 3 c-58 5 -67 -8 -67 -99 l0
-79 -150 0 -150 0 0 84 c0 67 -3 85 -16 90 -21 8 -79 8 -87 -1z"/>
<path class="st2" d="M4605 438 c-3 -7 -6 -106 -7 -221 l-3 -207 53 0 52 0 0 80 0 80 41 0
c37 0 49 -7 127 -79 l87 -79 68 -4 68 -3 -43 37 c-24 21 -64 55 -90 75 -26 21
-47 41 -48 46 0 4 22 7 49 7 38 0 56 6 78 24 26 23 28 29 28 103 0 98 -14 123
-79 141 -64 17 -375 17 -381 0z m334 -74 c32 -7 32 -7 29 -63 l-3 -56 -139 -3
c-124 -2 -138 -1 -132 14 3 8 6 38 6 65 l0 49 104 0 c57 0 118 -3 135 -6z"/>
<path class="st2" d="M5609 446 c-2 -3 -18 -7 -34 -10 -16 -3 -38 -15 -49 -26 -19 -18 -21
-35 -24 -157 -4 -156 1 -196 29 -224 18 -18 34 -19 239 -19 207 0 221 1 240
20 18 18 20 33 20 193 0 193 0 192 -69 216 -32 10 -342 17 -352 7z m331 -221
l0 -135 -167 0 -168 0 3 135 3 135 165 0 164 0 0 -135z"/>
<path class="st2" d="M6555 433 c-63 -22 -65 -28 -65 -210 0 -161 0 -164 25 -188 l24 -25
220 0 220 0 20 26 c19 25 21 40 21 188 0 186 -4 197 -74 215 -65 16 -341 12
-391 -6z m375 -208 l0 -135 -170 0 -170 0 0 135 0 135 170 0 170 0 0 -135z"/>
<path class="st2" d="M7487 444 c-4 -4 -7 -103 -7 -221 l0 -213 51 0 51 0 -3 143 -4 143
93 -123 94 -124 65 83 c35 46 79 102 96 125 18 23 35 43 40 43 4 0 7 -65 7
-144 l0 -144 45 -4 45 -3 0 222 0 223 -42 0 -43 -1 -99 -130 c-55 -71 -103
-128 -108 -127 -4 2 -52 59 -106 128 -89 114 -101 125 -133 128 -19 2 -38 0
-42 -4z"/>
<path class="st2" d="M8600 438 c-19 -5 -43 -16 -52 -25 -36 -32 -34 -167 3 -204 17 -17
34 -19 189 -19 l170 0 0 -52 0 -53 -155 3 c-146 3 -155 4 -155 22 0 15 -7 20
-29 20 -16 0 -36 -3 -45 -6 -23 -9 -21 -69 4 -94 19 -19 33 -20 220 -20 185 0
201 1 219 19 40 40 41 175 2 214 -20 20 -33 22 -186 25 l-165 4 0 33 c0 18 -3
40 -6 49 -5 14 11 16 146 16 145 0 151 -1 145 -19 -8 -25 4 -31 48 -24 32 5
37 9 37 32 0 41 -25 67 -74 80 -54 13 -267 13 -316 -1z"/>
</g>
</svg>
