<svg xmlns="http://www.w3.org/2000/svg" width="49" height="31" viewBox="0 0 49 31" fill="none"><rect width="48.311" height="30.919" rx="3" fill="#0F3560"/><path d="M28.382 23.057h-8.454V7.864h8.454v15.193z" fill="#6C6BBD"/><path d="M20.47 15.46a9.646 9.646 0 013.69-7.597 9.62 9.62 0 00-5.97-2.066c-5.336 0-9.661 4.326-9.661 9.662 0 5.337 4.325 9.663 9.66 9.663a9.62 9.62 0 005.972-2.066 9.646 9.646 0 01-3.69-7.597z" fill="#EB001B"/><path d="M39.784 15.46c0 5.336-4.325 9.662-9.661 9.662a9.623 9.623 0 01-5.972-2.066 9.644 9.644 0 003.691-7.597 9.644 9.644 0 00-3.69-7.596 9.623 9.623 0 015.971-2.066c5.336 0 9.66 4.326 9.66 9.662z" fill="#0099DF"/><path d="M32.869 13.808c.138 0 .337.026.489.086l-.212.647c-.145-.06-.29-.08-.43-.08-.448 0-.673.29-.673.813v1.77h-.687v-3.157h.68v.383c.179-.277.437-.462.833-.462zm-2.539.707h-1.122v1.426c0 .317.112.528.456.528.178 0 .402-.06.607-.178l.198.587c-.218.152-.561.245-.858.245-.813 0-1.096-.436-1.096-1.17v-1.438h-.641v-.628h.64v-.958h.694v.958h1.122v.627zm-8.79.673c.073-.456.35-.767.839-.767.442 0 .726.278.799.767H21.54zm2.351.277c-.006-.984-.614-1.657-1.5-1.657-.924 0-1.571.673-1.571 1.658 0 1.003.673 1.656 1.618 1.656.476 0 .911-.118 1.295-.442l-.338-.508c-.263.211-.6.33-.917.33-.443 0-.846-.205-.945-.773h2.345c.006-.086.013-.171.013-.263zm3.018-.772a2.025 2.025 0 00-.983-.271c-.377 0-.601.139-.601.37 0 .21.237.27.534.31l.323.046c.688.1 1.103.39 1.103.945 0 .6-.528 1.03-1.439 1.03-.515 0-.99-.132-1.367-.41l.323-.535c.232.179.576.33 1.05.33.47 0 .72-.138.72-.383 0-.177-.178-.277-.554-.33l-.324-.045c-.707-.1-1.09-.417-1.09-.932 0-.627.516-1.01 1.315-1.01.502 0 .957.112 1.287.33l-.297.555zm8.47-.233a1.04 1.04 0 00-.394.074.945.945 0 00-.523.53c-.05.125-.075.262-.075.412 0 .15.025.287.075.412a.947.947 0 00.523.53c.122.05.253.074.394.074.142 0 .273-.024.394-.074a.945.945 0 00.527-.53c.05-.125.076-.261.076-.412 0-.15-.025-.287-.076-.412a.943.943 0 00-.527-.53 1.036 1.036 0 00-.394-.074zm0-.652c.245 0 .472.042.68.127a1.606 1.606 0 01.899.878c.087.204.13.425.13.663 0 .238-.043.459-.13.662a1.61 1.61 0 01-.898.88 1.791 1.791 0 01-.68.126c-.246 0-.472-.042-.681-.127a1.646 1.646 0 01-.54-.35 1.63 1.63 0 01-.355-.529 1.68 1.68 0 01-.13-.662c0-.238.044-.459.13-.662.086-.203.205-.379.356-.528.151-.149.33-.266.539-.35.209-.086.435-.128.68-.128zm-17.852 1.658c0-.555.364-1.011.958-1.011.567 0 .95.436.95 1.01 0 .575-.383 1.01-.95 1.01-.594 0-.958-.455-.958-1.01zm2.556 0v-1.579h-.686v.383c-.219-.284-.549-.462-.998-.462-.885 0-1.578.693-1.578 1.658 0 .963.693 1.657 1.578 1.657.45 0 .779-.178.997-.462v.383h.687v-1.579zm-3.87 1.578v-1.981c0-.747-.475-1.248-1.241-1.255-.403-.007-.82.118-1.11.561-.217-.35-.561-.561-1.044-.561-.336 0-.666.099-.924.468v-.389h-.687v3.157h.694v-1.75c0-.548.303-.84.772-.84.456 0 .687.298.687.833v1.757h.694v-1.75c0-.548.317-.84.772-.84.47 0 .694.298.694.833v1.757h.693z" fill="#fff"/></svg>