<svg xmlns="http://www.w3.org/2000/svg" width="49" height="31" viewBox="0 0 49 31" fill="none"><rect width="48.311" height="30.919" rx="3" fill="#0F3560"/><path d="M28.37 23.058h-8.453V7.865h8.454v15.193z" fill="#FF5F00"/><path d="M20.46 15.46a9.646 9.646 0 013.69-7.596 9.62 9.62 0 00-5.971-2.066c-5.336 0-9.661 4.326-9.661 9.663 0 5.336 4.325 9.662 9.66 9.662a9.62 9.62 0 005.971-2.066 9.646 9.646 0 01-3.69-7.596z" fill="#EB001B"/><path d="M39.773 15.46c0 5.337-4.325 9.663-9.661 9.663a9.622 9.622 0 01-5.972-2.066 9.645 9.645 0 003.691-7.596 9.644 9.644 0 00-3.69-7.597 9.623 9.623 0 015.97-2.066c5.337 0 9.662 4.326 9.662 9.663z" fill="#F79E1B"/><path d="M15.79 15.522c0-.422.276-.769.728-.769.432 0 .723.332.723.769s-.291.769-.723.769c-.452 0-.729-.347-.729-.77zm1.944 0v-1.2h-.523v.29c-.165-.215-.416-.351-.758-.351-.673 0-1.201.528-1.201 1.26 0 .735.528 1.262 1.201 1.262.342 0 .593-.136.758-.352v.291h.523v-1.2zm17.642 0c0-.422.277-.769.729-.769.432 0 .723.332.723.769s-.29.769-.723.769c-.452 0-.729-.347-.729-.77zm1.945 0v-2.165h-.523v1.256c-.165-.216-.417-.352-.758-.352-.673 0-1.201.528-1.201 1.26 0 .735.528 1.262 1.2 1.262.342 0 .594-.136.76-.352v.291h.522v-1.2zm-13.107-.794c.337 0 .553.212.608.583h-1.246c.056-.347.266-.583.638-.583zm.01-.467c-.703 0-1.195.512-1.195 1.26 0 .764.512 1.262 1.23 1.262.362 0 .694-.09.985-.337l-.256-.387c-.201.161-.458.252-.698.252-.337 0-.643-.156-.719-.588h1.783c.006-.065.01-.13.01-.201-.004-.749-.467-1.261-1.14-1.261zm6.305 1.26c0-.421.276-.768.728-.768.432 0 .723.332.723.769s-.291.769-.723.769c-.452 0-.728-.347-.728-.77zm1.944 0v-1.2h-.522v.292c-.167-.216-.417-.352-.759-.352-.673 0-1.2.528-1.2 1.26 0 .735.527 1.262 1.2 1.262.342 0 .592-.136.759-.352v.291h.522v-1.2zm-4.893 0c0 .73.507 1.262 1.281 1.262.362 0 .603-.08.864-.287l-.25-.421c-.197.14-.403.216-.63.216-.416-.006-.723-.307-.723-.77 0-.461.307-.763.724-.768.226 0 .432.075.628.216l.25-.422c-.26-.206-.501-.286-.863-.286-.774 0-1.28.532-1.28 1.26zm6.732-1.26a.709.709 0 00-.634.352v-.292h-.517v2.402h.523v-1.346c0-.398.17-.619.512-.619.106 0 .216.015.327.06l.16-.492a1.112 1.112 0 00-.371-.065zm-13.996.251c-.252-.165-.598-.251-.98-.251-.608 0-1 .292-1 .769 0 .391.292.633.83.708l.246.035c.286.04.421.116.421.252 0 .185-.19.291-.547.291-.362 0-.623-.116-.799-.251l-.246.406c.287.211.648.312 1.04.312.693 0 1.095-.327 1.095-.784 0-.422-.316-.643-.839-.718l-.246-.036c-.226-.03-.407-.074-.407-.235 0-.176.17-.282.457-.282.307 0 .603.116.749.206l.226-.422zm6.736-.251a.707.707 0 00-.632.352v-.292h-.518v2.402h.522v-1.346c0-.398.171-.619.513-.619.105 0 .216.015.326.06l.161-.492a1.112 1.112 0 00-.372-.065zm-4.455.06h-.854v-.728h-.528v.728h-.487v.478h.487v1.095c0 .557.216.889.834.889.226 0 .487-.07.653-.186l-.15-.447a.966.966 0 01-.463.136c-.261 0-.346-.162-.346-.402v-1.085h.854v-.478zm-7.807 2.402v-1.507c0-.568-.361-.95-.944-.955-.307-.005-.623.09-.845.427-.165-.266-.426-.427-.793-.427-.257 0-.507.075-.703.357v-.297h-.523v2.402h.527V15.39c0-.416.232-.638.588-.638.347 0 .523.226.523.633v1.337h.527V15.39c0-.416.241-.638.588-.638.357 0 .527.226.527.633v1.337h.528z" fill="#fff"/></svg>