<svg xmlns="http://www.w3.org/2000/svg" width="32" height="32" viewBox="0 0 32 32" fill="none"><rect width="32" height="32" rx="16" fill="#292929"/><path d="M25.667 23.771l-1.447-1.447c-.152-.076-.228-.305-.228-.457V10.286c0-.153.076-.381.229-.534l1.446-1.676V8H20.49l-3.882 9.829L12.194 8H6.866v.076l1.37 1.905c.305.305.38.762.38 1.143v8.38c.077.458 0 .991-.228 1.448l-2.055 2.82v.076h5.48v-.077L9.76 21.03a2.348 2.348 0 01-.229-1.448v-7.62c.076.153.152.153.229.458L14.934 24h.077l5.023-12.571c-.076.457-.076.99-.076 1.371v8.99c0 .229-.076.381-.228.534l-1.523 1.447v.077h7.46v-.077z" fill="#fff"/></svg>