<svg xmlns="http://www.w3.org/2000/svg" width="48" height="31" viewBox="0 0 48 31" fill="none"><rect width="48" height="31" rx="3" fill="#082069"/><path d="M14.28 20.247h-1.99c-.136 0-.252.1-.274.236l-.804 5.148a.167.167 0 00.164.194h.95c.136 0 .252-.1.273-.236l.217-1.389a.277.277 0 01.273-.236h.63c1.31 0 2.067-.64 2.264-1.908.09-.555.004-.991-.253-1.296-.283-.336-.785-.513-1.45-.513zm.229 1.88c-.109.721-.654.721-1.182.721h-.3l.21-1.345a.166.166 0 01.164-.142h.138c.36 0 .698 0 .873.207.105.123.137.306.097.56zM20.227 22.104h-.953a.166.166 0 00-.163.14l-.043.27-.066-.098c-.206-.302-.666-.403-1.125-.403-1.053 0-1.953.805-2.128 1.934-.091.563.038 1.101.355 1.477.29.345.706.489 1.2.489.849 0 1.32-.55 1.32-.55l-.043.267a.167.167 0 00.163.193h.858c.137 0 .252-.1.274-.235l.515-3.291a.166.166 0 00-.164-.193zm-1.328 1.87c-.092.55-.524.919-1.075.919-.277 0-.498-.09-.64-.26-.14-.168-.194-.408-.15-.675a1.07 1.07 0 011.069-.925c.27 0 .49.09.635.262.145.173.203.414.161.68zM25.302 22.104h-.957a.277.277 0 00-.23.122l-1.32 1.963-.56-1.887a.278.278 0 00-.265-.198h-.941a.167.167 0 00-.157.22l1.054 3.124-.991 1.413a.167.167 0 00.135.264h.956c.091 0 .176-.045.227-.12l3.185-4.639a.167.167 0 00-.136-.262zM28.472 20.246h-1.99c-.136 0-.252.1-.273.236l-.805 5.149a.167.167 0 00.163.193h1.022c.094 0 .176-.07.19-.165l.229-1.46a.277.277 0 01.273-.236h.63c1.31 0 2.066-.64 2.264-1.908.09-.555.004-.99-.254-1.296-.282-.335-.784-.513-1.45-.513zm.23 1.88c-.11.721-.655.721-1.183.721h-.3l.211-1.345a.166.166 0 01.164-.142h.137c.36 0 .699 0 .874.207.104.123.136.307.096.56zM34.42 22.104h-.953a.166.166 0 00-.163.14l-.043.27-.067-.098c-.206-.302-.666-.403-1.125-.403-1.053 0-1.952.805-2.127 1.934-.09.563.038 1.101.355 1.477.29.345.706.489 1.2.489.849 0 1.319-.55 1.319-.55l-.043.267a.167.167 0 00.164.193h.858c.136 0 .252-.1.273-.235l.516-3.291a.167.167 0 00-.165-.193zm-1.329 1.87c-.091.55-.524.919-1.075.919-.276 0-.498-.09-.64-.26-.14-.168-.194-.408-.15-.675a1.07 1.07 0 011.069-.925c.27 0 .49.09.635.262.146.173.203.414.161.68zM35.543 20.387l-.817 5.244a.167.167 0 00.164.193h.82c.137 0 .253-.1.274-.236l.805-5.149a.167.167 0 00-.163-.193h-.92a.167.167 0 00-.163.142z" fill="#fff"/><path opacity=".68" d="M28.912 7.192c.158-1.016 0-1.707-.545-2.333-.6-.689-1.682-.984-3.067-.984h-4.021a.577.577 0 00-.568.49L19.036 15.08a.347.347 0 00.341.402h2.482l-.17 1.097a.304.304 0 00.297.352h2.093a.505.505 0 00.497-.429l.02-.107.394-2.522.026-.14a.505.505 0 01.497-.429h.313c2.027 0 3.614-.83 4.078-3.234.194-1.004.093-1.842-.42-2.432a1.995 1.995 0 00-.572-.445z" fill="#fff"/><path opacity=".7" d="M28.912 7.192c.158-1.016 0-1.707-.545-2.333-.6-.689-1.682-.984-3.067-.984h-4.021a.577.577 0 00-.568.49L19.036 15.08a.347.347 0 00.341.402h2.482l.624-3.99-.02.125a.575.575 0 01.567-.49h1.18c2.317 0 4.131-.95 4.661-3.697.016-.08.03-.16.041-.237z" fill="#fff"/><path d="M23.153 7.205a.507.507 0 01.497-.428h3.152c.373 0 .721.024 1.04.076a4.519 4.519 0 01.515.116l.12.037c.156.053.302.114.435.186.158-1.016 0-1.707-.545-2.333-.6-.689-1.682-.984-3.067-.984h-4.021a.577.577 0 00-.568.49L19.036 15.08a.347.347 0 00.341.402h2.482l.624-3.99.67-4.286z" fill="#fff"/></svg>