<svg xmlns="http://www.w3.org/2000/svg" width="30" height="30" viewBox="0 0 30 30" fill="none"><path d="M11.75 1.5h-2.5c-.3 0-.5.2-.5.5s.2.5.5.5h2.5c.3 0 .5-.2.5-.5s-.2-.5-.5-.5zM7.75 1.5h-.5c-.3 0-.5.2-.5.5s.2.5.5.5h.5c.3 0 .5-.2.5-.5s-.2-.5-.5-.5z" fill="#343434"/><path d="M27.25 6.5h-9V2c0-1.1-.9-2-2-2h-13c-1.1 0-2 .9-2 2v2.5c-.3 0-.5.2-.5.5v.5c0 .3.2.5.5.5v.5c-.3 0-.5.2-.5.5v.5c0 .3.2.5.5.5v.5c-.3 0-.5.2-.5.5v.5c0 .3.2.5.5.5v18c0 1.1.9 2 2 2h13c1.1 0 2-.9 2-2v-5.5h9c1.1 0 2-.9 2-2v-12c0-1.1-.9-2-2-2zm0 1c.55 0 1 .45 1 1V9H8.75v-.5c0-.55.45-1 1-1h17.5zm1 4.5H8.75v-2h19.5v2zm-26-10c0-.55.45-1 1-1h13c.55 0 1 .45 1 1v1h-15V2zm0 26v-2h6.181a1.996 1.996 0 00-.681 1.5c0 .596.265 1.133.681 1.5H3.25c-.55 0-1-.45-1-1zm7.5.5c-.55 0-1-.45-1-1s.45-1 1-1 1 .45 1 1-.45 1-1 1zm7.5-.5c0 .55-.45 1-1 1h-5.181c.416-.367.681-.904.681-1.5s-.264-1.133-.681-1.5h6.181v2zm0-3h-15V4h15v2.5h-7.5c-1.1 0-2 .9-2 2v12c0 1.1.9 2 2 2h7.5V25zm10-3.5H9.75c-.55 0-1-.45-1-1V13h19.5v7.5c0 .55-.45 1-1 1z" fill="#343434"/><path d="M26.75 16h-6.5c-.3 0-.5.2-.5.5V20c0 .3.2.5.5.5h6.5c.3 0 .5-.2.5-.5v-3.5c0-.3-.2-.5-.5-.5zm-.5 3.5h-5.5V17h5.5v2.5zM10.25 15.5h2.5c.3 0 .5-.2.5-.5s-.2-.5-.5-.5h-2.5c-.3 0-.5.2-.5.5s.2.5.5.5zM17.7 14.5h-3.25c-.3 0-.5.2-.5.5s.2.5.5.5h3.25c.3 0 .5-.2.5-.5s-.2-.5-.5-.5zM15.2 16.5h-4.95c-.3 0-.5.2-.5.5s.2.5.5.5h4.95c.25 0 .5-.2.5-.5s-.2-.5-.5-.5zM17.7 16.5h-.95c-.3 0-.5.2-.5.5s.2.5.5.5h.95c.3 0 .5-.2.5-.5s-.2-.5-.5-.5z" fill="#343434"/></svg>