<svg width="82" height="14" viewBox="0 0 82 14" fill="none" xmlns="http://www.w3.org/2000/svg"><path d="M7.701 0l2.226 4.49 4.976.725-3.6 3.494.849 4.936-4.45-2.332-4.451 2.332.85-4.936L.5 5.215l4.976-.724L7.701 0zM24.378 0l2.226 4.49 4.976.725-3.601 3.494.85 4.936-4.45-2.332-4.451 2.332.85-4.936-3.601-3.494 4.976-.724L24.378 0zM41.056 0l2.225 4.49 4.976.725-3.6 3.494.85 4.936-4.451-2.332-4.45 2.332.85-4.936-3.602-3.494 4.977-.724L41.056 0zM57.733 0l2.225 4.49 4.976.725-3.6 3.494.85 4.936-4.451-2.332-4.45 2.332.849-4.936-3.6-3.494 4.976-.724L57.733 0zM74.41 0l2.226 4.49 4.976.725-3.6 3.494.849 4.936-4.45-2.332-4.451 2.332.85-4.936-3.601-3.494 4.976-.724L74.41 0z" fill="#C4C4C4"/></svg>