<svg width="75" height="12" viewBox="0 0 75 12" fill="none" xmlns="http://www.w3.org/2000/svg"><path d="M7 0l2.008 3.95 4.492.637-3.25 3.072.767 4.341L7 9.95 2.983 12l.767-4.34L.5 4.586l4.492-.637L7 0zM22 0l2.009 3.95 4.491.637-3.25 3.072.767 4.341L22 9.95 17.983 12l.767-4.34-3.25-3.073 4.491-.637L22 0zM37.5 0l2.163 3.95 4.837.637L41 7.659 41.826 12 37.5 9.95 33.174 12 34 7.66l-3.5-3.073 4.837-.637L37.5 0zM53 0l2.008 3.95 4.492.637-3.25 3.072.767 4.341L53 9.95 48.983 12l.767-4.34-3.25-3.073 4.492-.637L53 0zM68 0l2.008 3.95 4.492.637-3.25 3.072.767 4.341L68 9.95 63.983 12l.767-4.34-3.25-3.073 4.492-.637L68 0z" fill="#C4C4C4"/></svg>