<svg width="102" height="20" viewBox="0 0 102 20" fill="none" xmlns="http://www.w3.org/2000/svg"><path d="M10.215.878a.3.3 0 01.57 0l2.117 6.516a.3.3 0 00.286.207h6.85a.3.3 0 01.177.543l-5.543 4.026a.3.3 0 00-.109.336l2.117 6.515a.3.3 0 01-.461.335l-5.543-4.026a.3.3 0 00-.352 0L4.78 19.357a.3.3 0 01-.461-.336l2.117-6.515a.3.3 0 00-.11-.336L.786 8.144A.3.3 0 01.962 7.6h6.85a.3.3 0 00.286-.207L10.215.878zM50.714.924a.3.3 0 01.572 0l2.006 6.466a.3.3 0 00.286.21h6.519a.3.3 0 01.181.54l-5.297 4.031a.3.3 0 00-.105.328l2.018 6.505a.3.3 0 01-.468.327l-5.244-3.991a.3.3 0 00-.364 0l-5.244 3.991a.3.3 0 01-.468-.327l2.017-6.505a.3.3 0 00-.104-.328L41.722 8.14a.3.3 0 01.181-.54h6.519a.3.3 0 00.286-.21L50.714.924zM30.215.878a.3.3 0 01.57 0l2.117 6.516a.3.3 0 00.286.207h6.85a.3.3 0 01.177.543l-5.543 4.026a.3.3 0 00-.109.336l2.117 6.515a.3.3 0 01-.461.335l-5.543-4.026a.3.3 0 00-.352 0l-5.543 4.027a.3.3 0 01-.461-.336l2.117-6.515a.3.3 0 00-.11-.336l-5.542-4.026a.3.3 0 01.177-.543h6.85a.3.3 0 00.286-.207L30.215.878zM71.215.878a.3.3 0 01.57 0l2.117 6.516a.3.3 0 00.286.207h6.85a.3.3 0 01.177.543l-5.543 4.026a.3.3 0 00-.109.336l2.117 6.515a.3.3 0 01-.461.335l-5.543-4.026a.3.3 0 00-.352 0l-5.543 4.027a.3.3 0 01-.461-.336l2.117-6.515a.3.3 0 00-.11-.336l-5.542-4.026a.3.3 0 01.177-.543h6.85a.3.3 0 00.286-.207L71.215.878zM91.215.878a.3.3 0 01.57 0l2.117 6.516a.3.3 0 00.286.207h6.85a.3.3 0 01.177.543l-5.543 4.026a.3.3 0 00-.109.336l2.117 6.515a.3.3 0 01-.461.335l-5.543-4.026a.3.3 0 00-.352 0l-5.543 4.027a.3.3 0 01-.461-.336l2.117-6.515a.3.3 0 00-.11-.336l-5.542-4.026a.3.3 0 01.177-.543h6.85a.3.3 0 00.286-.207L91.215.878z" fill="#D2D2D2"/></svg>