<svg id="svg" xmlns="http://www.w3.org/2000/svg" xmlns:xlink="http://www.w3.org/1999/xlink" width="30" height="30" viewBox="0, 0, 400,400"><g id="svgg"><path id="path0" d="M152.997 3.894 C 108.105 15.670,60.641 46.320,39.720 77.042 C 33.519 86.147,32.629 85.847,31.014 74.101 C 29.244 61.231,17.807 53.819,18.074 65.714 C 18.709 94.132,26.465 104.856,45.246 103.285 C 72.407 101.014,82.147 90.629,56.444 91.347 C 40.634 91.788,41.272 90.166,66.803 65.000 C 211.691 -77.811,450.028 80.365,375.695 270.000 C 336.000 371.267,197.907 422.967,112.616 368.492 C 106.959 364.879,99.232 365.998,98.363 370.556 C 96.292 381.420,150.473 398.127,192.101 399.461 C 367.534 405.083,463.944 209.514,353.964 71.116 C 309.762 15.493,221.424 -14.056,152.997 3.894 M134.000 81.149 C 99.350 99.418,68.975 116.584,66.500 119.294 L 62.000 124.223 62.000 200.000 L 62.000 275.777 66.500 280.666 C 68.975 283.354,83.600 292.081,99.000 300.059 C 114.400 308.036,141.992 322.536,160.316 332.281 C 192.717 349.514,203.720 353.125,209.100 348.293 C 210.145 347.355,224.500 339.588,241.000 331.034 C 315.852 292.228,333.395 282.460,334.797 278.809 C 335.459 277.084,336.000 241.028,336.000 198.685 L 336.000 121.697 331.500 117.698 C 326.152 112.946,208.230 50.610,201.591 49.027 C 198.225 48.224,180.188 56.796,134.000 81.149 M215.806 67.778 L 230.613 75.359 171.429 105.679 C 103.741 140.357,111.800 137.837,95.038 129.571 C 78.737 121.532,78.231 122.827,102.500 110.496 C 113.775 104.767,140.100 91.078,161.000 80.075 C 181.900 69.072,199.450 60.099,200.000 60.134 C 200.550 60.169,207.663 63.609,215.806 67.778 M263.440 93.480 C 268.741 96.944,273.841 93.942,197.567 132.255 C 137.047 162.655,141.340 157.433,142.359 199.425 L 143.000 225.849 135.659 218.674 C 129.679 212.829,127.177 211.667,122.159 212.403 L 116.000 213.307 116.000 179.881 L 116.000 146.455 179.434 114.408 L 242.867 82.361 250.934 86.470 C 255.370 88.729,260.998 91.884,263.440 93.480 M316.430 121.740 C 317.217 122.466,291.161 136.435,258.527 152.781 L 199.194 182.502 180.097 173.015 L 161.000 163.528 190.000 148.971 C 205.950 140.965,232.950 127.174,250.000 118.325 L 281.000 102.236 298.000 111.328 C 307.350 116.328,315.644 121.014,316.430 121.740 M104.000 183.368 C 104.000 224.087,103.969 224.000,118.476 224.000 C 123.552 224.000,126.889 225.727,132.000 231.000 C 148.108 247.620,154.000 239.731,154.000 201.543 L 154.000 171.705 174.000 182.296 L 194.000 192.887 194.000 264.657 C 194.000 321.266,193.472 336.220,191.500 335.442 C 190.125 334.900,163.350 320.938,132.000 304.416 L 75.000 274.375 74.475 203.192 L 73.949 132.008 88.975 139.442 L 104.000 146.877 104.000 183.368 M322.526 274.166 C 319.841 276.703,216.055 332.257,207.616 335.675 C 206.700 336.046,206.186 303.782,206.475 263.978 L 207.000 191.605 266.000 161.931 L 325.000 132.257 325.526 201.547 C 326.013 265.544,325.783 271.090,322.526 274.166 M-0.000 216.647 C -0.000 230.238,3.619 235.308,9.227 229.573 C 13.737 224.961,10.022 205.145,4.500 204.361 C 0.232 203.755,-0.000 204.387,-0.000 216.647 M4.331 238.601 C 1.366 242.174,6.805 261.667,11.243 263.370 C 17.406 265.735,18.994 260.678,15.909 248.506 C 12.919 236.708,8.815 233.198,4.331 238.601 M12.802 270.794 C 10.956 275.607,20.488 293.000,24.973 293.000 C 30.522 293.000,30.944 287.712,26.243 277.084 C 22.143 267.815,15.194 264.562,12.802 270.794 M28.000 302.043 C 28.000 308.953,38.089 322.274,42.809 321.596 C 48.979 320.710,48.910 315.359,42.611 306.259 C 36.341 297.200,28.000 294.793,28.000 302.043 M49.333 325.333 C 44.505 330.161,59.998 349.410,66.655 346.855 C 72.040 344.789,70.546 339.345,62.416 331.406 C 54.937 324.103,51.950 322.717,49.333 325.333 M72.723 349.000 C 70.884 353.792,73.240 357.440,81.852 363.139 C 97.132 373.251,101.443 364.339,86.712 353.092 C 76.386 345.207,74.401 344.627,72.723 349.000 " stroke="none" fill="#000000" fill-rule="evenodd"></path></g></svg>