<svg xmlns="http://www.w3.org/2000/svg" width="30" height="30" viewBox="0 0 30 30" fill="none"><path d="M28.5 24.9c-2.984-1.582-5.273-2.47-7.31-2.81l.21-.29c.1-.1.15-.25.1-.4l-.468-1.874c.17-.24.33-.488.48-.744 1.863-.634 2.805-1.706 2.963-3.284.819-.043 1.525-.773 1.525-1.598v-3.75c0-.821-.653-1.549-1.509-1.597C24.381 5.664 23.108 0 15 0c-1.787 0-3.486.354-4.93 1.062A6.482 6.482 0 006.5 0C2.9 0 0 2.9 0 6.5a6.487 6.487 0 004 6.005V13.9c0 .85.75 1.6 1.65 1.6h.75c.275 0 .54-.079.771-.214.284 1.505.91 2.985 1.798 4.24L8.5 21.4c0 .1 0 .25.1.4l.21.29c-2.037.34-4.326 1.227-7.31 2.81-.95.45-1.5 1.4-1.5 2.45v2.15c0 .3.2.5.5.5H29.5c.3 0 .5-.2.5-.5v-2.15c0-1-.6-1.95-1.5-2.45zm-13.497-1.144L16.2 26.5h-2.417l1.22-2.744zM13.42 27.5h3.158l.293 1.5H13.12l.3-1.5zm6.83-7l.2.9-.51.701a.448.448 0 00-.09.099l-2.08 2.88-.66.906-1.348-3.033c1.644-.2 3.108-1.038 4.282-2.24.07-.069.138-.14.206-.213zm1.952-3.11c.282-.687.495-1.4.63-2.119.19.116.406.193.64.219-.087.707-.4 1.374-1.27 1.9zm2.748-7.29v3.75c0 .3-.25.6-.6.6h-.75c-.3 0-.6-.25-.6-.6V10.1c0-.3.25-.6.6-.6h.75c.3 0 .6.25.6.6zM15 1c3.082 0 8.269 1.006 8.492 7.558a1.59 1.59 0 00-.592.183C22.292 4.934 18.972 2 15 2a7.864 7.864 0 00-3.225.694 6.507 6.507 0 00-.844-.956C12.14 1.247 13.534 1 15 1zM1 6.5C1 3.45 3.45 1 6.5 1c1.93 0 3.62.982 4.601 2.476.014.046.031.088.049.124.512.792.807 1.713.845 2.684l.002.035a5.432 5.432 0 01-.002.418l-.001.022a5.58 5.58 0 01-.016.237v.009C11.751 9.476 9.882 11.478 7.4 11.9a.493.493 0 00-.113.044c-.257.037-.52.056-.787.056C3.45 12 1 9.55 1 6.5zm5.95 7.35c0 .3-.25.6-.6.6H5.6c-.3 0-.6-.25-.6-.6v-1.023c.156.037.313.068.473.093.492.098.985.118 1.477.08v.85zM8 12.827a6.485 6.485 0 004.974-5.744l.002-.03a6.41 6.41 0 00.017-.254l.001-.039a6.601 6.601 0 00.003-.445l-.002-.049a7.992 7.992 0 00-.006-.14l-.003-.046a6.502 6.502 0 00-.01-.148l-.004-.032a6.485 6.485 0 00-.672-2.35C13.15 3.2 14.05 3 15 3c3.85 0 7 3.15 7 7v3.5c0 1.654-.43 3.169-1.129 4.447-1.193.346-2.91.553-5.371.553-.3 0-.5.2-.5.5s.2.5.5.5c1.802 0 3.308-.11 4.542-.342l-.092.092a8.37 8.37 0 01-.794.917c-1.178 1.097-2.582 1.761-3.935 1.827A.564.564 0 0015 21.95a.477.477 0 00-.208.045c-.829-.038-1.676-.301-2.48-.75-.814-.468-1.58-1.142-2.262-1.995l-.15-.15-.03-.01A9.212 9.212 0 018 13.5v-.673zm6.238 10.126l-1.348 3.033-.66-.906-2.08-2.88a.921.921 0 00-.052-.047L9.55 21.4l.2-.9c.068.073.136.144.206.214 1.173 1.2 2.638 2.038 4.282 2.239zM1 27.35c0-.65.35-1.25.95-1.55 3.187-1.693 5.481-2.543 7.525-2.797l2.984 4.103L12.08 29H1v-1.65zM29 29H17.92l-.379-1.894 3.016-4.147c2.037.307 4.372 1.156 7.493 2.791.6.35.95.95.95 1.6V29z" fill="#343434"/><path d="M7 7.5h2v1c0 .3.2.5.5.5s.5-.2.5-.5v-1h.5c.3 0 .5-.2.5-.5s-.2-.5-.5-.5H10V4c0-.2-.15-.4-.35-.5-.2-.05-.4 0-.55.15l-2.5 3c-.1.15-.15.35-.05.55.1.2.25.3.45.3zm2-2.1v1.1h-.95L9 5.4zM6 8.05H3.95l1.75-1.5c.5-.5.65-1.3.4-1.95-.3-.7-.85-1.1-1.6-1.1-1.1 0-2 .9-2 2 0 .3.2.5.5.5s.5-.2.5-.5c0-.55.45-1 1-1 .45 0 .6.35.65.5.1.2.1.55-.15.8L2.75 7.75c-.25.2-.3.5-.2.8.15.25.4.45.7.45H6c.3 0 .5-.15.5-.45 0-.3-.2-.5-.5-.5z" fill="#343434"/></svg>