<svg xmlns="http://www.w3.org/2000/svg" width="30" height="30" viewBox="0 0 30 30" fill="none"><path d="M6.717 21.06c-.555 0-1.01.455-1.01 1.01 0 .556.455 1.01 1.01 1.01.556 0 1.01-.454 1.01-1.01 0-.555-.454-1.01-1.01-1.01zM23.94 21.06c-.556 0-1.01.455-1.01 1.01 0 .556.454 1.01 1.01 1.01.555 0 1.01-.454 1.01-1.01 0-.555-.455-1.01-1.01-1.01zM22.424 17.525h-1.01c-.303 0-.505.202-.505.505s.202.505.505.505h1.01c.303 0 .505-.202.505-.505s-.202-.505-.505-.505z" fill="#343434"/><path d="M29.343 16.465l-1.97-.808-1.262-5.05c-.151-.708-.758-1.163-1.465-1.163h-2.653c.663-2.037.916-3.805.936-3.99 0-.15-.05-.252-.1-.403a.573.573 0 00-.405-.152H4.192c-.253 0-.455.152-.455.404l-.29 1.616h-1.83c-.304 0-.506.202-.506.505s.202.505.505.505h1.649l-.182 1.01h-1.82c-.303 0-.505.202-.505.505s.202.505.505.505H2.9l-.182 1.01H.91c-.303 0-.505.203-.505.506s.202.505.505.505h1.628l-.181 1.01H.505c-.303 0-.505.202-.505.505s.202.505.505.505h1.669l-.255 1.414a.382.382 0 00-.018.1L.707 21.97c-.05.151-.05.252.05.404a.46.46 0 00.405.202H3.73A3.041 3.041 0 006.717 25.1a3.041 3.041 0 002.987-2.525h11.248A3.041 3.041 0 0023.94 25.1a3.041 3.041 0 002.988-2.525h2.063c.556 0 1.01-.455 1.01-1.01v-4.142a.988.988 0 00-.657-.96zM8.788 12.98H3.389l.18-1.01h5.623a.506.506 0 00.505-.505c0-.303-.202-.505-.505-.505H3.749l.18-1.01h5.616c.303 0 .505-.202.505-.505 0-.304-.202-.506-.505-.506H4.108l.18-1.01h5.611c.303 0 .505-.202.505-.505s-.202-.505-.505-.505H4.467l.18-1.01h17.171c-.148.869-.51 2.61-1.178 4.337-.828 2.11-2.206 4.412-4.303 4.72a5.094 5.094 0 01-.041.005c-.03.004-.058.008-.088.01a3.353 3.353 0 01-.14.012l-.047.003a3.346 3.346 0 01-.163.004H3.03l.18-1.01h5.628c.253 0 .455-.202.455-.505s-.202-.505-.505-.505zm-2.07 11.11c-1.112 0-2.021-.908-2.021-2.02 0-1.11.91-2.02 2.02-2.02 1.111 0 2.02.91 2.02 2.02 0 1.112-.909 2.02-2.02 2.02zm17.221 0c-1.11 0-2.02-.908-2.02-2.02 0-1.11.91-2.02 2.02-2.02 1.111 0 2.02.91 2.02 2.02 0 1.112-.909 2.02-2.02 2.02zm5.05-2.524h-2.063a3.041 3.041 0 00-2.987-2.526l-.023.001h-.027c-1.515 0-2.727 1.11-2.98 2.525H9.704a3.048 3.048 0 00-1.743-2.256l-.06-.027-.038-.016a2.639 2.639 0 00-.099-.039l-.027-.01a2.856 2.856 0 00-.395-.112l-.03-.006a2.814 2.814 0 00-.113-.02l-.034-.006a2.89 2.89 0 00-.11-.014l-.039-.005a2.968 2.968 0 00-.112-.008l-.037-.003a3.092 3.092 0 00-.3 0l-.037.003a2.968 2.968 0 00-.112.008l-.038.005a3.096 3.096 0 00-.111.014l-.034.005a3.235 3.235 0 00-.114.02l-.03.007a2.962 2.962 0 00-.115.027l-.026.007a2.97 2.97 0 00-.116.033l-.025.007a3.189 3.189 0 00-.112.038l-.027.01a3.293 3.293 0 00-.099.04l-.038.015-.06.027a3.048 3.048 0 00-1.743 2.256H1.768l1.06-5.556h13.03c.072 0 .143-.002.213-.005h.014c2.805-.142 4.533-2.892 5.552-5.55h3.01c.252 0 .454.202.505.404l1.15 4.646h-2.211a.669.669 0 01-.657-.656v-2.374c0-.303-.202-.505-.505-.505s-.505.202-.505.505v2.374c0 .909.758 1.666 1.667 1.666h2.677l2.222.859v4.192z" fill="#343434"/></svg>