<svg xmlns="http://www.w3.org/2000/svg" width="49" height="31" viewBox="0 0 49 31" fill="none"><rect width="48.311" height="30.919" rx="3" fill="#00579F"/><path d="M21.708 20.808h-2.974l1.86-10.663h2.974l-1.86 10.663zM32.489 10.406a7.84 7.84 0 00-2.668-.454c-2.937 0-5.006 1.452-5.018 3.527-.025 1.532 1.48 2.383 2.606 2.893 1.151.522 1.542.863 1.542 1.328-.011.714-.93 1.043-1.786 1.043-1.187 0-1.824-.17-2.79-.567l-.392-.17-.416 2.393c.697.295 1.982.556 3.317.568 3.12 0 5.152-1.43 5.176-3.642.012-1.213-.783-2.143-2.496-2.903-1.04-.488-1.677-.817-1.677-1.317.012-.453.538-.918 1.713-.918a5.394 5.394 0 012.215.408l.27.113.404-2.302zM36.44 17.03c.246-.612 1.188-2.983 1.188-2.983-.012.023.245-.624.391-1.02l.208.918s.564 2.552.686 3.085H36.44zm3.672-6.885h-2.3c-.71 0-1.249.193-1.555.885l-4.418 9.778h3.12l.625-1.6h3.819c.085.374.355 1.6.355 1.6h2.753l-2.399-10.663zM16.247 10.145l-2.913 7.27-.318-1.474c-.539-1.701-2.228-3.55-4.112-4.47l2.668 9.325h3.145l4.675-10.65h-3.145z" fill="#fff"/><path d="M10.63 10.149H5.847l-.05.215c3.733.885 6.206 3.018 7.221 5.582l-1.04-4.9c-.171-.682-.697-.875-1.346-.897z" fill="#FAA61A"/></svg>