<svg xmlns="http://www.w3.org/2000/svg" width="32" height="32" viewBox="0 0 32 32" fill="none"><rect width="32" height="32" rx="16" fill="#0DC143"/><path d="M23.167 8.808c-1.715-1.766-4.086-2.725-6.508-2.725-5.146 0-9.283 4.188-9.232 9.283 0 1.615.454 3.179 1.21 4.591L7.327 24.75l4.894-1.261c1.362.756 2.875 1.11 4.389 1.11 5.095 0 9.232-4.188 9.232-9.283 0-2.472-.958-4.793-2.674-6.508zM16.66 23.035c-1.362 0-2.724-.354-3.884-1.06l-.303-.151-2.926.757.756-2.876-.201-.303c-2.22-3.582-1.16-8.324 2.472-10.544 3.632-2.22 8.324-1.16 10.544 2.472 2.22 3.633 1.16 8.324-2.472 10.544-1.16.757-2.573 1.16-3.986 1.16zm4.44-5.6l-.555-.253s-.807-.353-1.312-.605c-.05 0-.1-.05-.151-.05a.729.729 0 00-.353.1s-.05.05-.757.858a.277.277 0 01-.252.152h-.05a.383.383 0 01-.203-.101l-.252-.101c-.555-.253-1.06-.555-1.463-.959-.1-.1-.252-.202-.353-.303-.353-.353-.706-.756-.959-1.21l-.05-.101c-.05-.05-.05-.101-.101-.202 0-.101 0-.202.05-.252 0 0 .202-.253.354-.404.1-.1.15-.252.252-.353.1-.152.151-.353.1-.505-.05-.252-.655-1.614-.806-1.917-.101-.151-.202-.201-.354-.252h-.555c-.1 0-.201.05-.302.05l-.05.05c-.102.051-.203.152-.303.203-.101.1-.152.202-.253.302a2.573 2.573 0 00-.555 1.564c0 .404.101.808.253 1.16l.05.152a8.406 8.406 0 001.867 2.573l.202.202c.15.151.302.252.403.404a9.016 9.016 0 003.633 1.917c.15.05.353.05.504.1h.505c.252 0 .554-.1.756-.201.152-.101.253-.101.353-.202l.101-.101c.101-.1.202-.151.303-.252.101-.101.202-.202.252-.303.101-.202.152-.454.202-.706v-.353s-.05-.05-.151-.101z" fill="#fff"/></svg>