<svg xmlns="http://www.w3.org/2000/svg" width="32" height="32" viewBox="0 0 32 32" fill="none"><rect width="32" height="32" rx="16" fill="red"/><path fill-rule="evenodd" clip-rule="evenodd" d="M23.825 9.427c.857.23 1.532.906 1.763 1.763.428 1.565.412 4.827.412 4.827s0 3.245-.412 4.81a2.506 2.506 0 01-1.763 1.763c-1.565.412-7.825.412-7.825.412s-6.244 0-7.825-.429a2.506 2.506 0 01-1.763-1.762C6 19.26 6 16 6 16s0-3.245.412-4.81a2.557 2.557 0 011.763-1.78C9.74 8.998 16 8.998 16 8.998s6.26 0 7.825.429zM19.212 16l-5.205 2.998v-5.996L19.212 16z" fill="#fff"/></svg>